<svg xmlns="http://www.w3.org/2000/svg" viewBox="0 0 116.15 90.71"><defs><style>.cls-1{fill:#002856;}.cls-2{fill:#3d7cc9;}</style></defs><g id="Capa_2" data-name="Capa 2"><g id="Capa_1-2" data-name="Capa 1"><path class="cls-1" d="M6.47,81.34a3.56,3.56,0,0,1,3.32-2.1,3.93,3.93,0,0,1,2.27.64,3.77,3.77,0,0,1,1.39,1.75h2.88A6.34,6.34,0,0,0,14.09,78a6.72,6.72,0,0,0-4.26-1.32,6.72,6.72,0,0,0-3.48.89A6,6,0,0,0,4,80.08a7.35,7.35,0,0,0-.76,2.51H6.08A4.81,4.81,0,0,1,6.47,81.34Z"/><path class="cls-1" d="M12.06,87.52a3.94,3.94,0,0,1-2.27.65,3.66,3.66,0,0,1-2-.55,3.53,3.53,0,0,1-1.36-1.56,4.33,4.33,0,0,1-.41-1.39H3.25A7.28,7.28,0,0,0,4,87.33a6.06,6.06,0,0,0,2.33,2.48,6.71,6.71,0,0,0,3.47.88,6.72,6.72,0,0,0,4.26-1.32,6.27,6.27,0,0,0,2.24-3.6H13.45A3.72,3.72,0,0,1,12.06,87.52Z"/><path class="cls-1" d="M28.31,77.55a6.38,6.38,0,0,1,2.47,2.5,7.29,7.29,0,0,1,.91,3.62,7.36,7.36,0,0,1-.91,3.64,6.41,6.41,0,0,1-2.47,2.51,7.29,7.29,0,0,1-7,0,6.55,6.55,0,0,1-2.47-2.51,7.36,7.36,0,0,1-.9-3.64,7.28,7.28,0,0,1,.9-3.62,6.52,6.52,0,0,1,2.47-2.5,7.22,7.22,0,0,1,7,0ZM22.7,79.73a3.73,3.73,0,0,0-1.43,1.56,5.83,5.83,0,0,0,0,4.77,3.73,3.73,0,0,0,1.43,1.56,4.36,4.36,0,0,0,4.24,0,3.67,3.67,0,0,0,1.43-1.56,5.73,5.73,0,0,0,0-4.77,3.67,3.67,0,0,0-1.43-1.56,4.36,4.36,0,0,0-4.24,0Z"/><path class="cls-1" d="M45.38,90.58H42.63l-6.14-9.34v9.34H33.75V76.85h2.74l6.14,9.41V76.85h2.75Z"/><path class="cls-1" d="M56.77,88.76a3.82,3.82,0,0,1-1.55,1.42,5.51,5.51,0,0,1-2.51.53,6.53,6.53,0,0,1-2.61-.49,4.46,4.46,0,0,1-1.84-1.43,4.08,4.08,0,0,1-.78-2.18h2.91A2.26,2.26,0,0,0,51.06,88a2.11,2.11,0,0,0,1.53.55,1.78,1.78,0,0,0,1.31-.45,1.59,1.59,0,0,0,.46-1.18A1.52,1.52,0,0,0,54,85.86a2.78,2.78,0,0,0-.93-.67c-.38-.17-.9-.36-1.56-.58a15.86,15.86,0,0,1-2.1-.85A3.91,3.91,0,0,1,48,82.55a3.53,3.53,0,0,1-.57-2.08,3.4,3.4,0,0,1,1.27-2.8,5.23,5.23,0,0,1,3.37-1,5.37,5.37,0,0,1,3.48,1A4,4,0,0,1,57,80.5h-3a2.11,2.11,0,0,0-.62-1.21,1.94,1.94,0,0,0-1.39-.48,1.85,1.85,0,0,0-1.22.4,1.62,1.62,0,0,0-.11,2.16,2.87,2.87,0,0,0,.92.65,13.42,13.42,0,0,0,1.5.56,22.61,22.61,0,0,1,2.15.88,3.81,3.81,0,0,1,1.41,1.22,3.61,3.61,0,0,1,.59,2.14A3.75,3.75,0,0,1,56.77,88.76Z"/><path class="cls-1" d="M68.65,76.85V79H64.86V90.58H62.12V79H58.35V76.85Z"/><path class="cls-1" d="M77.32,90.58l-3.21-5.35h-1.2v5.35H70.17V76.85H75.4A5.18,5.18,0,0,1,79,78a4,4,0,0,1,1.26,3.08,4,4,0,0,1-.87,2.6,4.23,4.23,0,0,1-2.5,1.4l3.43,5.49Zm-4.41-7.24h2.25c1.57,0,2.36-.69,2.36-2.08a2,2,0,0,0-.58-1.54,2.47,2.47,0,0,0-1.78-.56H72.91Z"/><path class="cls-1" d="M84.79,76.85V84.9a3.6,3.6,0,0,0,.71,2.42,2.58,2.58,0,0,0,2,.81,2.55,2.55,0,0,0,2-.81,3.55,3.55,0,0,0,.71-2.42V76.85H93V84.9a6.63,6.63,0,0,1-.72,3.22,4.55,4.55,0,0,1-2,1.95,6.1,6.1,0,0,1-2.85.64,5.3,5.3,0,0,1-3.94-1.48,5.84,5.84,0,0,1-1.48-4.33V76.85Z"/><path class="cls-1" d="M106.49,76.85l-4.65,8.92v4.81H99.08V85.77l-4.67-8.92h3.15l2.92,6,2.92-6Z"/><rect class="cls-1" x="107.97" y="82.58" width="7.6" height="2.1"/><rect class="cls-1" x="107.97" y="88.38" width="8.19" height="2.2"/><rect class="cls-1" x="107.97" y="76.85" width="8.19" height="2.18"/><path class="cls-1" d="M116.15,0H55.68A41.12,41.12,0,0,1,71.05,14.83h45.1Z"/><path class="cls-1" d="M55.68,71.79h60.47V57H71.06A41.15,41.15,0,0,1,55.68,71.79Z"/><path class="cls-1" d="M.8,28.48A35.87,35.87,0,0,0,.75,43.31h111.4V28.48Z"/><path class="cls-2" d="M52.58,48.37a20.82,20.82,0,0,1-33.13-.12,18.76,18.76,0,0,1-1.54-2.36H1.44c.23.8.48,1.59.76,2.36a35.91,35.91,0,0,0,67.38.12Z"/><path class="cls-2" d="M69.57,23.42H52.89a20.82,20.82,0,0,0-33.65,0,19.27,19.27,0,0,0-1.55,2.47H1.44c.24-.83.51-1.66.81-2.47a35.9,35.9,0,0,1,67.32,0Z"/></g></g></svg>