<svg xmlns="http://www.w3.org/2000/svg" viewBox="0 0 180.13 51"><defs><style>.cls-1{fill:#98989a;}.cls-2{fill:#002856;}</style></defs><g id="Capa_2" data-name="Capa 2"><g id="Capa_1-2" data-name="Capa 1"><path class="cls-1" d="M96.1,43h1.7a1.9,1.9,0,0,1,2.14,1.95A1.88,1.88,0,0,1,99,46.6a1.85,1.85,0,0,1,1.61,1.94,2.17,2.17,0,0,1-2.41,2.18H96.1Zm.51,3.52h1.24a1.51,1.51,0,0,0,1.06-.33A1.47,1.47,0,0,0,99.42,45a1.5,1.5,0,0,0-.53-1.21,2,2,0,0,0-1.29-.32h-1Zm0,3.78h1.31a2.36,2.36,0,0,0,1.68-.46,1.52,1.52,0,0,0,.5-1.19,1.4,1.4,0,0,0-.82-1.44,3.32,3.32,0,0,0-1.46-.23H96.61Z"/><path class="cls-1" d="M107.88,47.4,105.33,43h.58l2.24,3.93L110.43,43H111l-2.62,4.45v3.32h-.51Z"/><path class="cls-1" d="M129.91,44.54a3.44,3.44,0,0,0-2.62-1.23,3.54,3.54,0,0,0,0,7.07,3.59,3.59,0,0,0,2.61-1.18v.68a3.9,3.9,0,0,1-2.59,1,4,4,0,1,1,0-8,3.79,3.79,0,0,1,2.61,1Z"/><path class="cls-1" d="M141.94,44.54a3.5,3.5,0,1,0-2.61,5.84,3.6,3.6,0,0,0,2.61-1.18v.68a3.92,3.92,0,0,1-2.59,1,4,4,0,1,1,0-8,3.81,3.81,0,0,1,2.61,1Z"/><path class="cls-1" d="M148.5,43v7.77H148V43Z"/><path class="cls-1" d="M154.89,50.72l.89-8,3.36,7.19,3.37-7.19.88,8h-.51l-.69-6.24s-3,6.52-3.05,6.52l-3-6.52-.68,6.24Z"/><path class="cls-1" d="M173.69,48.17h-3.31l-1,2.55h-.56l3.27-8,3.23,8h-.56Zm-.19-.47L172,44l-1.48,3.68Z"/><polygon class="cls-2" points="21.84 9.32 10.44 9.32 10.44 0.55 0 0.55 0 34.32 10.44 34.32 10.44 17.61 21.84 17.61 21.84 34.32 32.32 34.32 32.32 0.55 21.84 0.55 21.84 9.32"/><path class="cls-2" d="M82.81,9.31a10.29,10.29,0,0,0-4,.73,9.45,9.45,0,0,0-3.19,2.21V.55H66.2V34.32H75V30.71a11.92,11.92,0,0,0,3.36,3.11,9.77,9.77,0,0,0,4.52,1.06,9.59,9.59,0,0,0,5.24-1.51,10,10,0,0,0,3.69-4.56,17.5,17.5,0,0,0,1.34-7.06q0-6-2.93-9.23A9.56,9.56,0,0,0,82.81,9.31Zm-.2,17.31A3.5,3.5,0,0,1,79.79,28a3.73,3.73,0,0,1-3-1.42A7.07,7.07,0,0,1,75.6,22a6.44,6.44,0,0,1,1.21-4.29,3.91,3.91,0,0,1,3.12-1.42,3.39,3.39,0,0,1,2.71,1.36,6.66,6.66,0,0,1,1.11,4.26C83.75,24.13,83.37,25.69,82.61,26.62Z"/><rect class="cls-2" x="95.98" y="0.55" width="9.38" height="6.45"/><rect class="cls-2" x="95.98" y="9.32" width="9.38" height="25"/><path class="cls-2" d="M174.32,31.82a13.6,13.6,0,0,1-.21-2.71V18.31a10.68,10.68,0,0,0-.7-3.63,7,7,0,0,0-1.88-2.94,8.76,8.76,0,0,0-4.27-2,39.26,39.26,0,0,0-6.77-.47,28.64,28.64,0,0,0-4.88.39,11.35,11.35,0,0,0-3.55,1.11,8,8,0,0,0-2.75,2.34,10,10,0,0,0-1.47,3.69l9,1a4,4,0,0,1,1.45-2.17,6.49,6.49,0,0,1,3.45-.73,3.57,3.57,0,0,1,2.51.69,3.27,3.27,0,0,1,.72,2.42,31.52,31.52,0,0,1-3.32,1.11c-1,.29-3.33.78-6.84,1.49-2.93.58-4.95,1.47-6,2.67a6.55,6.55,0,0,0-1.63,4.58,6.41,6.41,0,0,0,2.27,5q2.26,2,6.64,2a15.3,15.3,0,0,0,5.78-1,12,12,0,0,0,3.67-2.54,9.53,9.53,0,0,0,.32,1.56,9.51,9.51,0,0,0,.69,1.44h8.8A12.75,12.75,0,0,1,174.32,31.82Zm-9.38-7.62a6.17,6.17,0,0,1-.57,2.85,4.5,4.5,0,0,1-1.91,1.85,5.8,5.8,0,0,1-2.91.76,3.25,3.25,0,0,1-2.27-.7,2.4,2.4,0,0,1,0-3.53,9.23,9.23,0,0,1,3.62-1.5c1.39-.35,2.74-.76,4-1.22Z"/><path class="cls-2" d="M44.87,17.79l-9-.94a10,10,0,0,1,1.47-3.7,7.93,7.93,0,0,1,2.75-2.33,11.35,11.35,0,0,1,3.55-1.11,28.64,28.64,0,0,1,4.88-.39,39.26,39.26,0,0,1,6.77.47,8.59,8.59,0,0,1,4.26,2,6.88,6.88,0,0,1,1.89,2.94,10.56,10.56,0,0,1,.69,3.62V29.13a13.37,13.37,0,0,0,.22,2.7,12.3,12.3,0,0,0,1,2.5h-8.8a7.87,7.87,0,0,1-.69-1.44,10.27,10.27,0,0,1-.33-1.55,11.85,11.85,0,0,1-3.66,2.53,15.14,15.14,0,0,1-5.78,1c-2.92,0-5.13-.68-6.65-2a6.44,6.44,0,0,1-2.26-5,6.52,6.52,0,0,1,1.63-4.58q1.63-1.8,6-2.67,5.26-1.07,6.84-1.49A30.81,30.81,0,0,0,53,18a3.29,3.29,0,0,0-.71-2.42,3.59,3.59,0,0,0-2.51-.69,6.52,6.52,0,0,0-3.46.74A4.1,4.1,0,0,0,44.87,17.79ZM53,22.72c-1.29.46-2.63.87-4,1.23a9.2,9.2,0,0,0-3.61,1.49,2.39,2.39,0,0,0,0,3.54,3.24,3.24,0,0,0,2.26.7,5.81,5.81,0,0,0,2.92-.76,4.61,4.61,0,0,0,1.91-1.85A6.18,6.18,0,0,0,53,24.22ZM49,.55H57L49.84,7H45.35Z"/><path class="cls-1" d="M123,28.26a1.7,1.7,0,0,1-1.61-.78,4.67,4.67,0,0,1-.3-2.07V16.18h5.16V9.32h-5.16V.57l-9.4,4.82V9.32h-3.46v6.86h3.46v9.17a16,16,0,0,0,.79,5.92A5.48,5.48,0,0,0,114.92,34a11.24,11.24,0,0,0,5.16.9,30.94,30.94,0,0,0,6.49-.76l-.69-6.47A10.5,10.5,0,0,1,123,28.26Z"/><path class="cls-1" d="M129.49,6.63a1.69,1.69,0,0,1,1.61.79,4.59,4.59,0,0,1,.3,2.06v9.23h-5.16v6.87h5.16v8.74l9.4-4.81V25.58h3.46V18.71H140.8V9.55A16.08,16.08,0,0,0,140,3.62,5.46,5.46,0,0,0,137.55.9a11.24,11.24,0,0,0-5.16-.9,30.29,30.29,0,0,0-6.49.76l.69,6.47A10.23,10.23,0,0,1,129.49,6.63Z"/><path class="cls-2" d="M177.8,30.6a1.06,1.06,0,0,1,.73.22.81.81,0,0,1,.28.65.78.78,0,0,1-.33.67.79.79,0,0,1-.32.13l.9,1.21h-.7l-.77-1.15h-.07v1.15H177V30.6Zm-.28,1.33h.16c.11,0,.56,0,.56-.44s-.44-.43-.55-.43h-.17Z"/><path class="cls-2" d="M177.87,34.32a2.26,2.26,0,1,1,2.26-2.26A2.26,2.26,0,0,1,177.87,34.32Zm0-4.16a1.9,1.9,0,1,0,1.9,1.9A1.91,1.91,0,0,0,177.87,30.16Z"/></g></g></svg>