<?xml version="1.0" encoding="utf-8"?>
<!-- Generator: Adobe Illustrator 25.2.0, SVG Export Plug-In . SVG Version: 6.00 Build 0)  -->
<svg version="1.1" id="Capa_1" xmlns="http://www.w3.org/2000/svg" xmlns:xlink="http://www.w3.org/1999/xlink" x="0px" y="0px"
	 viewBox="0 0 182.4 59.2" style="enable-background:new 0 0 182.4 59.2;" xml:space="preserve">
<style type="text/css">
	.st0{fill:#002856;}
	.st1{fill:#0047BA;}
</style>
<polygon class="st0" points="59,17.4 49.5,41.7 42.7,59 33.9,59 28.6,41.7 21.3,17.4 20,12.8 18.2,17.4 8.8,41.7 0,41.7 9.4,17.4 
	16.1,0 16.1,0 24.9,0 30.1,17.4 37.4,41.7 38.8,46.3 40.7,41.7 50.2,17.4 "/>
<path class="st1" d="M101.1,17.4h14.7v3.9h-9.6v6.2h7.4v3.8h-7.4v6.4h10.7v4h-15.7V17.4z"/>
<path class="st1" d="M125.3,21.2h-6.9v-3.9h18.8v3.9h-6.9v20.4h-5.1V21.2z"/>
<path class="st1" d="M140.6,17.4h14.7v3.9h-9.6v6.2h7.4v3.8h-7.4v6.4h10.7v4h-15.7V17.4z"/>
<path class="st1" d="M159.1,29.5c0-1.7,0.3-3.5,0.9-5.1c0.6-1.4,1.4-2.7,2.5-3.8c2.2-2.1,5.3-3.3,8.4-3.2c1.8,0,3.6,0.2,5.4,0.7
	l1.2,0.3l-0.7,4.4c-0.6-0.3-1.2-0.6-1.8-0.9c-1.1-0.4-2.2-0.5-3.4-0.5c-1,0-2,0.2-3,0.5c-0.8,0.4-1.6,0.9-2.2,1.5
	c-1.4,1.6-2.1,3.7-2,5.8c-0.1,2.2,0.6,4.4,1.9,6.1c1.3,1.6,3.3,2.5,5.4,2.4c1.6,0,3.2-0.4,4.7-1c0.3-0.1,0.6-0.3,0.9-0.5v4.1
	c-1.2,0.5-2.4,0.9-3.6,1.1c-0.8,0.1-1.6,0.2-2.4,0.2c-3.3,0.2-6.5-1.1-8.8-3.3C160.1,35.9,158.9,32.7,159.1,29.5z"/>
<path class="st1" d="M75.2,17.4h5.4l4.5,13.2l1.3,4.6l1.3-4.6l4.3-13.3h5.4l-8.8,24.3h-4.3L75.2,17.4z"/>
<path class="st1" d="M78.1,41.7h-5.4l-4.5-13.2l-1.3-4.6l-1.3,4.6l-4.2,13.2H56l8.8-24.3h4.3L78.1,41.7z"/>
<path class="st0" d="M180.1,38c0.3,0,0.5,0,0.7,0.2c0.2,0.2,0.3,0.4,0.3,0.7c0,0.3-0.1,0.5-0.3,0.7c-0.1,0.1-0.2,0.1-0.3,0.1
	l0.9,1.2h-0.7l-0.8-1.2h-0.1v1.2h-0.6V38H180.1z M179.8,39.3h0.2c0.1,0,0.6,0,0.6-0.4s-0.4-0.4-0.5-0.4h-0.2L179.8,39.3z"/>
<path class="st0" d="M180.2,41.7c-1.2,0-2.3-1-2.3-2.3s1-2.3,2.3-2.3c1.2,0,2.3,1,2.3,2.3c0,0,0,0,0,0
	C182.4,40.7,181.4,41.7,180.2,41.7z M180.2,37.6c-1,0-1.9,0.9-1.9,1.9s0.9,1.9,1.9,1.9c1,0,1.9-0.9,1.9-1.9v0
	C182.1,38.4,181.2,37.6,180.2,37.6z"/>
</svg>
