<svg xmlns="http://www.w3.org/2000/svg" viewBox="0 0 97.99 99.98"><defs><style>.cls-1{fill:#002856;}</style></defs><g id="Capa_2" data-name="Capa 2"><g id="Capa_1-2" data-name="Capa 1"><path class="cls-1" d="M11.81,50l5.36-14.07h3.44L26,50H22.62l-1.14-3H16l-1,3Zm9-5.35L19.2,40.08c-.05-.13-.1-.36-.18-.69s-.14-.73-.22-1.2c-.08.45-.16.86-.24,1.22a6.39,6.39,0,0,1-.17.73l-1.52,4.49Z"/><path class="cls-1" d="M27.52,50V35.91h3V47.43h4.81V50Z"/><path class="cls-1" d="M37.42,50V35.91h3V50Z"/><path class="cls-1" d="M41.46,50l5.36-14.07h3.44L55.69,50H52.27l-1.15-3H45.67l-1,3Zm9-5.35-1.57-4.55a5.21,5.21,0,0,1-.18-.69c-.07-.33-.14-.73-.22-1.2-.08.45-.16.86-.24,1.22s-.13.61-.17.73l-1.52,4.49Z"/><path class="cls-1" d="M56.75,50V35.91h3.83a15.33,15.33,0,0,1,3.58.32,6.29,6.29,0,0,1,2.3,1.05,6.2,6.2,0,0,1,1.94,2.4A8,8,0,0,1,69.05,43a7.8,7.8,0,0,1-.67,3.33,6.09,6.09,0,0,1-2,2.39,6.25,6.25,0,0,1-2.14,1,14.86,14.86,0,0,1-3.45.3H56.75Zm3-2.53h1.67a4.72,4.72,0,0,0,3.45-1.08A4.67,4.67,0,0,0,66,43a4.65,4.65,0,0,0-1.08-3.41,4.72,4.72,0,0,0-3.45-1.08H59.76Z"/><path class="cls-1" d="M86,43a7.44,7.44,0,0,1-.56,2.86,7.15,7.15,0,0,1-1.62,2.37,8,8,0,0,1-2.47,1.6,7.49,7.49,0,0,1-5.37.12,7.87,7.87,0,0,1-2.27-1.25A7.18,7.18,0,0,1,71,43a7.13,7.13,0,0,1,2.19-5.22,7.77,7.77,0,0,1,2.46-1.59,7.51,7.51,0,0,1,5.74,0,7.77,7.77,0,0,1,2.46,1.59,7.19,7.19,0,0,1,1.62,2.38A7.34,7.34,0,0,1,86,43Zm-7.5,4.71a4.13,4.13,0,0,0,3.16-1.34,5.15,5.15,0,0,0,0-6.73,4.34,4.34,0,0,0-6.31,0,5.15,5.15,0,0,0,0,6.73A4.17,4.17,0,0,0,78.51,47.68Z"/><path class="cls-1" d="M55.84,88.37a3.16,3.16,0,0,0-1.73,0l-.32,0L54.23,91l.32,0a3.42,3.42,0,0,0,1.66-.58,1.09,1.09,0,0,0,.25-1A1.19,1.19,0,0,0,55.84,88.37Z"/><path class="cls-1" d="M67.15,84.3a2,2,0,0,0-1.3.3l-.27.15L67,87.37l.27-.14a1.86,1.86,0,0,0,1-.94,1.53,1.53,0,0,0-.2-1.22A1.36,1.36,0,0,0,67.15,84.3Z"/><path class="cls-1" d="M76.57,79.29l1.35,2.62,1.69-1.74L76.9,78.9l-.39-.22-.63-.42c.17.23.31.44.44.64A3.45,3.45,0,0,1,76.57,79.29Z"/><path class="cls-1" d="M98,24V15.3L80.06,5.86A5.52,5.52,0,0,0,78,5.43a4.31,4.31,0,0,0-1.76.43l-3,1.62a2.45,2.45,0,0,1-1,.25,2.16,2.16,0,0,1-1.15-.51L62.17.69A3.72,3.72,0,0,0,60,0a4.89,4.89,0,0,0-2.48.81l-6.1,4.62a2,2,0,0,1-1,.39,2.38,2.38,0,0,1-1-.13L46.84,4.53a3.7,3.7,0,0,0-2-.27A4.6,4.6,0,0,0,43.07,5l-7.48,5.74a1.86,1.86,0,0,1-.86.43A2.16,2.16,0,0,1,33.67,11L24.35,7.9A3.75,3.75,0,0,0,23,7.7,3.82,3.82,0,0,0,21.59,8L5.88,15h0L0,17.64V24H0V51A49.22,49.22,0,0,0,12,83.07a49.49,49.49,0,0,0,9.52,8.46,49,49,0,0,0,55,0A49.73,49.73,0,0,0,86,83.07,49,49,0,0,0,98,51V24ZM24,80.16l-1.48-.08a1.39,1.39,0,0,0,.06-.75,1.48,1.48,0,0,0-.39-.68,1.31,1.31,0,0,0-.79-.45.86.86,0,0,0-.73.23c-.33.31-.33.9,0,1.79.07.18.12.32.15.41a4.41,4.41,0,0,1,.27,1.93,2.15,2.15,0,0,1-.68,1.34,2.38,2.38,0,0,1-1.95.7,3.18,3.18,0,0,1-2-1.12A3.63,3.63,0,0,1,15.57,82a2.16,2.16,0,0,1,0-1.42l1.52,0a1.56,1.56,0,0,0-.12,1,1.73,1.73,0,0,0,.45.88,1.53,1.53,0,0,0,.9.53,1,1,0,0,0,.85-.28c.29-.27.3-.85,0-1.72-.08-.28-.15-.51-.2-.67a4.86,4.86,0,0,1-.22-1.9,2.22,2.22,0,0,1,2.5-1.78,3.28,3.28,0,0,1,2,1.12A3,3,0,0,1,24,78.87,2.77,2.77,0,0,1,24,80.16Zm8.22,13.65-1.93-1,1.91-3.77-3.92-2-1.91,3.78-1.93-1,4.58-9,1.93,1-1.84,3.62,3.92,2,1.84-3.62,1.93,1ZM46.65,89l-3.77-.43-.24,2.06,3.78.44-.21,1.83-3.78-.44L42.14,95l3.78.44-.21,1.83-5.93-.68,1.16-10.07,5.92.69Zm11.17,7.3-3.41-4.23.79,4.67-2.14.36-1.68-10,3-.51a4.43,4.43,0,0,1,2.85.24,2.59,2.59,0,0,1,1.27,2,2.72,2.72,0,0,1-.33,1.87,2.43,2.43,0,0,1-1.46,1.12l3.53,4.08Zm12.43-9.73a3.93,3.93,0,0,1-1.94,2l-.53.28,1.83,3.41-1.91,1-4.8-8.92,2.19-1.18a4.75,4.75,0,0,1,3-.73,2.83,2.83,0,0,1,2,1.63A2.9,2.9,0,0,1,70.25,86.58Zm12.56-4.91L81,80.88l-2.37,2.44.91,1.73-1.4,1.45-4-8.5,1.5-1.54,8.64,3.68Zm6.72-39.14a40.54,40.54,0,1,1-81.07,0V30.08h0v-5l13.13-5.85A3.82,3.82,0,0,1,23,18.92a3.75,3.75,0,0,1,1.37.2l9.21,3.1a2.14,2.14,0,0,0,1.07.09,2.3,2.3,0,0,0,.86-.38L43,16.2a5.16,5.16,0,0,1,1.91-.72,3.7,3.7,0,0,1,2,.27l2.66,1.16a1.52,1.52,0,0,0,.87.13,2,2,0,0,0,1-.39L57.45,12A5.34,5.34,0,0,1,60,11.22a3.72,3.72,0,0,1,2.16.69l9.12,6.64a1.63,1.63,0,0,0,1,.35,2.37,2.37,0,0,0,1-.25l3-1.61a4.27,4.27,0,0,1,1.83-.36,4,4,0,0,1,1.86.46l9.51,4.93v8h0Z"/><polygon class="cls-1" points="33.07 58 33.15 58.46 32.41 58.07 32.41 58.07 31.01 57.34 29.61 58.07 29.61 58.07 28.88 58.46 28.96 58 29.29 56.08 27.56 54.4 29.95 54.05 30.5 52.93 31.01 51.89 31.53 52.93 32.08 54.05 34.46 54.4 32.74 56.08 33.07 58"/><polygon class="cls-1" points="42.06 58 42.14 58.46 41.4 58.07 41.4 58.07 40 57.34 38.6 58.07 38.6 58.07 37.87 58.46 37.95 58 38.28 56.08 36.55 54.4 38.94 54.05 39.49 52.93 40 51.89 40.52 52.93 41.07 54.05 43.45 54.4 41.73 56.08 42.06 58"/><polygon class="cls-1" points="51.05 58 51.13 58.46 50.39 58.07 50.39 58.07 48.99 57.34 47.59 58.07 47.59 58.07 46.86 58.46 46.94 58 47.27 56.08 45.54 54.4 47.93 54.05 48.48 52.93 48.99 51.89 49.51 52.93 50.06 54.05 52.44 54.4 50.72 56.08 51.05 58"/><polygon class="cls-1" points="60.04 58 60.12 58.46 59.38 58.07 59.38 58.07 57.98 57.34 56.59 58.07 56.58 58.07 55.85 58.46 55.93 58 56.26 56.08 54.53 54.4 56.92 54.05 57.47 52.93 57.98 51.89 58.5 52.93 59.05 54.05 61.43 54.4 59.71 56.08 60.04 58"/><polygon class="cls-1" points="69.03 58 69.11 58.46 68.37 58.07 68.37 58.07 66.97 57.34 65.58 58.07 65.57 58.07 64.84 58.46 64.92 58 65.25 56.08 63.52 54.4 65.91 54.05 66.46 52.93 66.97 51.89 67.49 52.93 68.04 54.05 70.42 54.4 68.7 56.08 69.03 58"/></g></g></svg>