<svg xmlns="http://www.w3.org/2000/svg" viewBox="0 0 135.09 121.93"><defs><style>.cls-1{fill:#002854;}.cls-2{fill:#00155c;}.cls-3{fill:#00a5cd;}</style></defs><g id="Capa_2" data-name="Capa 2"><g id="Capa_1-2" data-name="Capa 1"><path class="cls-1" d="M67.52,12.39l42,41.94L79.91,83.89,68.59,72.57l1.72-1.72,9.25,9.24.35.36.36-.36,25.4-25.4.35-.36-.35-.35L67.88,16.19l-.36-.36-.35.36L42.52,40.76,40.8,39,67.52,12.39"/><path class="cls-1" d="M36.85,43l1.72,1.72L29.29,54l-.35.35.35.36,25.4,25.4.36.36.35-.36L92.48,43l1.72,1.73L55.05,83.89,25.49,54.33Z"/><path class="cls-1" d="M67.52,0l35.71,35.71-5.07,5.07-1.72-1.72,3-3,.36-.35-.36-.36L67.88,3.8l-.36-.36-.35.36L35.61,35.35l-.35.36.35.35L66.38,66.89l-1.72,1.72L31.81,35.71,67.52,0"/><path class="cls-1" d="M67.52,24.86l4.75,4.75-4.75,4.75-4.75-4.75,4.75-4.75"/><path class="cls-2" d="M0,90.86v-.13H3.7A4.87,4.87,0,0,1,5.34,91a3.5,3.5,0,0,1,1.18.69,2.89,2.89,0,0,1,.94,2.14,3.11,3.11,0,0,1-.22,1.13,2.74,2.74,0,0,1-.69,1,3.47,3.47,0,0,1-1.22.68,5.82,5.82,0,0,1-1.75.25c-.21,0-.61,0-1.21-.09v3.89a1.11,1.11,0,0,0,1.22,1.24V102H0v-.12a1.39,1.39,0,0,0,.87-.3,1.16,1.16,0,0,0,.34-.94V92.11a1.57,1.57,0,0,0-.12-.65.87.87,0,0,0-.29-.37,1.4,1.4,0,0,0-.37-.17l-.28-.06Zm2.37.26v5.32a6.6,6.6,0,0,0,1.16.11A3.08,3.08,0,0,0,5.39,96a2.46,2.46,0,0,0,.76-2.09,3.12,3.12,0,0,0-.67-2.07,2.47,2.47,0,0,0-2-.81A6.78,6.78,0,0,0,2.37,91.12Z"/><path class="cls-2" d="M21.09,96.38a5.84,5.84,0,0,1-.78,3,6,6,0,0,1-2.15,2.17,5.72,5.72,0,0,1-3,.81,5.85,5.85,0,0,1-3-.81A5.92,5.92,0,0,1,10,99.32a5.84,5.84,0,0,1-.79-3A5.91,5.91,0,0,1,9.63,94,5.75,5.75,0,0,1,11,92.1a6.19,6.19,0,0,1,1.93-1.26,5.83,5.83,0,0,1,2.26-.44,5.92,5.92,0,0,1,4.14,1.65A5.86,5.86,0,0,1,20.61,94,6,6,0,0,1,21.09,96.38Zm-1.35,0A6.6,6.6,0,0,0,19,92.89a4.18,4.18,0,0,0-1.84-1.71,5.13,5.13,0,0,0-2-.43,5.22,5.22,0,0,0-1.47.23,4.06,4.06,0,0,0-1.49.86A4.52,4.52,0,0,0,11,93.58a7.37,7.37,0,0,0-.46,2.79,7.8,7.8,0,0,0,.38,2.54A4.85,4.85,0,0,0,12,100.68a4.15,4.15,0,0,0,1.49,1,4.7,4.7,0,0,0,1.7.31,5,5,0,0,0,1.6-.28,4.18,4.18,0,0,0,1.48-.91,4.65,4.65,0,0,0,1.08-1.72A7.37,7.37,0,0,0,19.74,96.41Z"/><path class="cls-2" d="M23.06,90.89H22.9v-.16h3.91a3.85,3.85,0,0,1,1.6.29,2.75,2.75,0,0,1,1,.74,3,3,0,0,1,.52.94,3.46,3.46,0,0,1,.16,1,2.85,2.85,0,0,1-.26,1.18,2.53,2.53,0,0,1-.79,1,3.14,3.14,0,0,1-1.33.55v0a4.77,4.77,0,0,1,1.87,2l1,1.72a5.58,5.58,0,0,0,1.11,1.47,1.61,1.61,0,0,0,.82.34V102h-2l-.25-.32-.24-.34c-.06-.07-.13-.19-.23-.34a2.73,2.73,0,0,0-.18-.27l-1.35-2.23a6.16,6.16,0,0,0-.83-1.11,3.51,3.51,0,0,0-.79-.61,2.37,2.37,0,0,0-.67-.22,3.48,3.48,0,0,0-.69,0v4.13a1.11,1.11,0,0,0,1.23,1.24V102H22.9v-.12a1.56,1.56,0,0,0,.6-.13.92.92,0,0,0,.43-.38,1.29,1.29,0,0,0,.18-.73V92.11a1.19,1.19,0,0,0-.33-1A1.11,1.11,0,0,0,23.06,90.89Zm2.21,5.33h.64a4.12,4.12,0,0,0,1.66-.29,1.93,1.93,0,0,0,.94-.83,2.68,2.68,0,0,0,.29-1.32,3.19,3.19,0,0,0-.26-1.28,2.33,2.33,0,0,0-.88-1A3,3,0,0,0,26,91a3.29,3.29,0,0,0-.7.07Z"/><path class="cls-2" d="M48.34,90.17a1.35,1.35,0,0,1-1.14.56H33.74a3,3,0,0,1-.46,0,1.39,1.39,0,0,1-.34-.09.91.91,0,0,1-.24-.16,3.08,3.08,0,0,1-.22-.28h-.12v2.76h.12a1.69,1.69,0,0,1,.65-1.43,2.66,2.66,0,0,1,1.38-.33h2.24v9.48a1.14,1.14,0,0,1-.35.95,1.4,1.4,0,0,1-.85.29V102h3.59v-.12a1.11,1.11,0,0,1-1.22-1.24V91.17h5v9.48a1.14,1.14,0,0,1-.35.95,1.4,1.4,0,0,1-.85.29V102h3.59v-.12a1.11,1.11,0,0,1-1.22-1.24V91.17h2.24a2.66,2.66,0,0,1,1.38.33,1.69,1.69,0,0,1,.65,1.43h.12V90.17Z"/><path class="cls-2" d="M61.52,96.38a5.75,5.75,0,0,1-.79,3,5.94,5.94,0,0,1-2.14,2.17,5.74,5.74,0,0,1-3,.81,6,6,0,0,1-6-6A5.74,5.74,0,0,1,50.06,94a5.6,5.6,0,0,1,1.32-1.9,6.08,6.08,0,0,1,1.93-1.26,5.8,5.8,0,0,1,2.26-.44,6,6,0,0,1,2.22.42,6.11,6.11,0,0,1,1.92,1.23,5.85,5.85,0,0,1,1.81,4.33Zm-1.35,0a6.6,6.6,0,0,0-.8-3.52,4.08,4.08,0,0,0-1.84-1.71,5.08,5.08,0,0,0-2-.43,5.28,5.28,0,0,0-1.48.23,4.14,4.14,0,0,0-1.49.86,4.5,4.5,0,0,0-1.19,1.74,7.36,7.36,0,0,0-.47,2.79,7.53,7.53,0,0,0,.39,2.54,4.71,4.71,0,0,0,1.07,1.77,4.15,4.15,0,0,0,1.49,1,4.66,4.66,0,0,0,1.7.31,5,5,0,0,0,1.59-.28,4.1,4.1,0,0,0,1.48-.91,4.67,4.67,0,0,0,1.09-1.72A7.37,7.37,0,0,0,60.17,96.41Z"/><path class="cls-2" d="M73.24,102H69v-.12h.15a1,1,0,0,0,.74-.31,1.26,1.26,0,0,0,.31-.93V92.13a1.34,1.34,0,0,0-.29-.94,1,1,0,0,0-.77-.33H69v-.13H72.7a4.05,4.05,0,0,1,1.34.21,3,3,0,0,1,1,.58,2.76,2.76,0,0,1,.66.84,2.38,2.38,0,0,1,.23,1A2.2,2.2,0,0,1,75.31,95a3.93,3.93,0,0,1-1.77.93v0a6,6,0,0,1,1,.16,3.71,3.71,0,0,1,.85.3,3,3,0,0,1,.7.49,3.24,3.24,0,0,1,.51.61,2.9,2.9,0,0,1,.31.72,3,3,0,0,1,.11.79,2.51,2.51,0,0,1-.46,1.52,3.32,3.32,0,0,1-1,1A4.74,4.74,0,0,1,73.24,102Zm-1.85-6.1h.73a3.29,3.29,0,0,0,1.29-.19,2.65,2.65,0,0,0,.51-.34,2.12,2.12,0,0,0,.5-.67,2.28,2.28,0,0,0,.25-1.11,2.77,2.77,0,0,0-.17-1,2.31,2.31,0,0,0-.46-.81,2.17,2.17,0,0,0-.73-.55,2,2,0,0,0-.92-.2,3.27,3.27,0,0,0-1,.17Zm1.15.34H71.39v4.07a2.22,2.22,0,0,0,.08.68.82.82,0,0,0,.44.47,3,3,0,0,0,3.32-.84,3.11,3.11,0,0,0,.23-2.76,2.42,2.42,0,0,0-.62-.87,3,3,0,0,0-1-.55A4.23,4.23,0,0,0,72.54,96.25Z"/><path class="cls-2" d="M78.48,101.89h.16a1,1,0,0,0,.73-.32,1.29,1.29,0,0,0,.32-.92V92.13a1.16,1.16,0,0,0-.36-1,1.38,1.38,0,0,0-.85-.29v-.13h3.61v.13a1.48,1.48,0,0,0-.84.28,1.17,1.17,0,0,0-.37,1v8.24a1.2,1.2,0,0,0,.37,1,2,2,0,0,0,1.2.29h1a2.79,2.79,0,0,0,1-.15,1.35,1.35,0,0,0,.6-.47,4.78,4.78,0,0,0,.46-.89h.13L85.2,102H78.48Z"/><path class="cls-2" d="M91.9,90.59l3.38,9.67a4.54,4.54,0,0,0,.5,1.09,1.16,1.16,0,0,0,.46.42,1.88,1.88,0,0,0,.55.12V102H93.11v-.12a2.48,2.48,0,0,0,.87-.11c.21-.07.31-.26.31-.58a2.32,2.32,0,0,0-.15-.7.23.23,0,0,1,0-.09l-1-3H89.2l-.9,2.77a3.19,3.19,0,0,0-.18.91.69.69,0,0,0,.24.63,1.14,1.14,0,0,0,.67.16V102H86.38v-.12a1.33,1.33,0,0,0,.91-.43,3.46,3.46,0,0,0,.59-1.16l3.19-9.71ZM89.33,97h3.59l-1.84-5.36h0Z"/><path class="cls-2" d="M109.68,90.73v.13A2.43,2.43,0,0,0,109,91a.78.78,0,0,0-.39.44,2.51,2.51,0,0,0-.14.94v9.9h-.07l-8.67-9.67v6.94a8.17,8.17,0,0,0,.07,1.29,1.48,1.48,0,0,0,.2.6,1.19,1.19,0,0,0,1,.43V102H98.16v-.12a1.38,1.38,0,0,0,.74-.2,1.06,1.06,0,0,0,.38-.66,7.25,7.25,0,0,0,.11-1.45V92.22L99,91.8a3.09,3.09,0,0,0-.8-.72,2.6,2.6,0,0,0-.74-.22v-.13h2.12l8.54,9.56V93a7.42,7.42,0,0,0-.07-1.22,1,1,0,0,0-.34-.66,1.4,1.4,0,0,0-.88-.26v-.13Z"/><path class="cls-2" d="M121.37,93.25h-.13a2.39,2.39,0,0,0-.77-1.4A4.1,4.1,0,0,0,119,91a5.12,5.12,0,0,0-1.53-.26,4.22,4.22,0,0,0-3.3,1.57,5.22,5.22,0,0,0-1,1.79,7.2,7.2,0,0,0-.34,2.27,7,7,0,0,0,.33,2.2,5.23,5.23,0,0,0,1,1.77,4.25,4.25,0,0,0,3.36,1.51,5.94,5.94,0,0,0,1.88-.35,4.81,4.81,0,0,0,1.86-1.16v.44a8.86,8.86,0,0,1-1.87,1.15,5.21,5.21,0,0,1-2.11.37,6,6,0,0,1-2.43-.48,5.5,5.5,0,0,1-1.86-1.32,5.62,5.62,0,0,1-1.15-1.86,6.15,6.15,0,0,1,2.62-7.43,5.77,5.77,0,0,1,3-.82,8.41,8.41,0,0,1,2.14.3l.8.22a2,2,0,0,0,.39,0,.72.72,0,0,0,.4-.08.73.73,0,0,0,.15-.32h.12Z"/><path class="cls-2" d="M135.09,96.38a5.84,5.84,0,0,1-.78,3,6,6,0,0,1-2.14,2.17,5.78,5.78,0,0,1-3,.81A5.94,5.94,0,0,1,125,92.1a6.31,6.31,0,0,1,1.93-1.26,5.88,5.88,0,0,1,2.27-.44,5.92,5.92,0,0,1,4.13,1.65A5.71,5.71,0,0,1,134.61,94,6,6,0,0,1,135.09,96.38Zm-1.35,0a6.6,6.6,0,0,0-.79-3.52,4.12,4.12,0,0,0-1.84-1.71,5.12,5.12,0,0,0-2-.43,5.23,5.23,0,0,0-1.48.23,4.14,4.14,0,0,0-1.49.86A4.4,4.4,0,0,0,125,93.58a7.17,7.17,0,0,0-.47,2.79,7.53,7.53,0,0,0,.39,2.54,4.7,4.7,0,0,0,1.06,1.77,4.1,4.1,0,0,0,1.5,1,4.61,4.61,0,0,0,1.69.31,5,5,0,0,0,1.6-.28,4.18,4.18,0,0,0,1.48-.91,4.67,4.67,0,0,0,1.09-1.72A7.38,7.38,0,0,0,133.74,96.41Z"/><polygon class="cls-3" points="135.08 106.65 1.64 106.65 0.01 108.28 133.45 108.28 135.08 106.65"/><path class="cls-2" d="M4.4,114.8a1.85,1.85,0,0,0-1.69-1,1.5,1.5,0,0,0-1.6,1.54c0,.9.65,1.2,1.51,1.62a11.34,11.34,0,0,1,1.71.87,1.8,1.8,0,0,1,.92,1.61,2.53,2.53,0,0,1-2.68,2.43,2.49,2.49,0,0,1-2-.87,2.9,2.9,0,0,1-.55-.91l.49-.23a2.63,2.63,0,0,0,.46.8,2.08,2.08,0,0,0,1.61.71,2,2,0,0,0,2.07-1.92,1.46,1.46,0,0,0-.83-1.31c-.25-.14-.75-.39-1.46-.72a3.27,3.27,0,0,1-1.57-1.1,1.79,1.79,0,0,1-.27-1,2.05,2.05,0,0,1,2.2-2.07,2.32,2.32,0,0,1,2.09,1.18Z"/><path class="cls-2" d="M14.62,119H11l-1.15,2.74H9.2l3.62-8.58,3.57,8.58h-.62Zm-.2-.5-1.61-3.94-1.64,3.94Z"/><path class="cls-2" d="M20.81,121.72V113.3L28,120.62v-7.23h.57v8.54l-7.22-7.32v7.11Z"/><path class="cls-2" d="M40.63,113.39v7.83H43v.5h-3v-8.33Z"/><path class="cls-2" d="M48,113.39v5.21a3.06,3.06,0,0,0,.36,1.79,2.55,2.55,0,0,0,4,0,3,3,0,0,0,.36-1.79v-5.21h.57v5.21a3.31,3.31,0,0,1-.49,2.13,3.21,3.21,0,0,1-4.87,0,3.37,3.37,0,0,1-.49-2.13v-5.21Z"/><path class="cls-2" d="M59.26,113.39v8.33h-.57v-8.33Z"/><path class="cls-2" d="M68.57,114.8a1.85,1.85,0,0,0-1.69-1,1.5,1.5,0,0,0-1.6,1.54c0,.9.65,1.2,1.51,1.62a11.34,11.34,0,0,1,1.71.87,1.8,1.8,0,0,1,.92,1.61,2.53,2.53,0,0,1-2.68,2.43,2.49,2.49,0,0,1-2-.87,2.9,2.9,0,0,1-.55-.91l.49-.23a2.63,2.63,0,0,0,.46.8,2.08,2.08,0,0,0,1.61.71,2,2,0,0,0,2.07-1.92,1.46,1.46,0,0,0-.83-1.31c-.25-.14-.75-.39-1.46-.72A3.27,3.27,0,0,1,65,116.3a1.79,1.79,0,0,1-.27-1,2.05,2.05,0,0,1,2.2-2.07A2.32,2.32,0,0,1,69,114.46Z"/><path class="cls-2" d="M81,117.76v4h-.57v-8.33h1.66c1.41,0,2.51.75,2.51,2.17a2.2,2.2,0,0,1-2.5,2.2Zm0-.5h1.13A1.68,1.68,0,0,0,84,115.57c0-1-.72-1.68-2-1.68H81Z"/><path class="cls-2" d="M97.7,117.57a4.46,4.46,0,1,1-4.45-4.29A4.31,4.31,0,0,1,97.7,117.57Zm-.59,0a3.87,3.87,0,1,0-3.86,3.78A3.75,3.75,0,0,0,97.11,117.57Z"/><path class="cls-2" d="M104.05,113.89v7.83h-.56v-7.83h-2.23v-.5h5v.5Z"/><path class="cls-2" d="M118.75,117.57a4.46,4.46,0,1,1-4.46-4.29A4.32,4.32,0,0,1,118.75,117.57Zm-.59,0a3.87,3.87,0,1,0-3.87,3.78A3.76,3.76,0,0,0,118.16,117.57Z"/><path class="cls-2" d="M127.6,114.8a1.85,1.85,0,0,0-1.69-1,1.5,1.5,0,0,0-1.6,1.54c0,.9.65,1.2,1.51,1.62a10.86,10.86,0,0,1,1.71.87,1.8,1.8,0,0,1,.92,1.61,2.53,2.53,0,0,1-2.68,2.43,2.51,2.51,0,0,1-2-.87,2.9,2.9,0,0,1-.55-.91l.49-.23a2.86,2.86,0,0,0,.46.8,2.08,2.08,0,0,0,1.61.71,2,2,0,0,0,2.08-1.92,1.46,1.46,0,0,0-.84-1.31c-.25-.14-.75-.39-1.46-.72a3.27,3.27,0,0,1-1.57-1.1,1.79,1.79,0,0,1-.27-1,2.05,2.05,0,0,1,2.2-2.07,2.32,2.32,0,0,1,2.09,1.18Z"/><path class="cls-2" d="M135,111.27l-1.36,1.67-.52-.19,1.15-1.69ZM134,113.39v8.33h-.57v-8.33Z"/></g></g></svg>