<svg xmlns="http://www.w3.org/2000/svg" viewBox="0 0 141.28 86.18"><defs><style>.cls-1{fill:#004e59;}.cls-2{fill:#008996;}</style></defs><g id="Capa_2" data-name="Capa 2"><g id="Capa_1-2" data-name="Capa 1"><path class="cls-1" d="M0,73.46H1.35l4.11,9.59,4.18-9.59H11L5.59,85.87H5.32Z"/><path class="cls-1" d="M13.08,73.46h7.11v1.22H14.32v3.89h5.82v1.21H14.32v4.88h5.82v1.21H13.08Z"/><path class="cls-1" d="M22.4,73.46h2.47a15.16,15.16,0,0,1,2.8.17,3.17,3.17,0,0,1,1.8,1.09,3.1,3.1,0,0,1,.69,2,3.29,3.29,0,0,1-.48,1.78,2.93,2.93,0,0,1-1.36,1.16,6.34,6.34,0,0,1-2.44.4l4.46,5.76H28.8l-4.46-5.76h-.7v5.76H22.4Zm1.24,1.22V78.9h2.14a5.55,5.55,0,0,0,1.84-.23,2,2,0,0,0,.93-.76,2.1,2.1,0,0,0,.33-1.16,2,2,0,0,0-.34-1.13,1.82,1.82,0,0,0-.89-.73,5.24,5.24,0,0,0-1.82-.22Z"/><path class="cls-1" d="M32.83,73.46h7.11v1.22H34.07v3.89h5.82v1.21H34.07v4.88h5.82v1.21H32.83Z"/><path class="cls-1" d="M42.08,85.87V73.46h2.57a13,13,0,0,1,4,.45,5.41,5.41,0,0,1,2.82,2.19,6.65,6.65,0,0,1,1,3.72,6.46,6.46,0,0,1-.81,3.28,5.09,5.09,0,0,1-2.09,2.1,7.88,7.88,0,0,1-3.6.67Zm1.19-1.17H44.7a13.5,13.5,0,0,0,3.57-.32,4.09,4.09,0,0,0,2.2-1.64,5.07,5.07,0,0,0,.8-2.9,5.3,5.3,0,0,0-.87-3.06A4.38,4.38,0,0,0,48,75a14.86,14.86,0,0,0-3.83-.35h-.88Z"/><path class="cls-1" d="M60,73.46l5.79,12.41H64.45l-2-4.08H57.15l-1.93,4.08H53.84L59.7,73.46Zm-.16,2.64-2.12,4.49H62Z"/><path class="cls-1" d="M66.43,83.56l1-.63c.75,1.36,1.6,2,2.58,2a2.53,2.53,0,0,0,1.17-.29,2.16,2.16,0,0,0,.83-.78,2,2,0,0,0-.13-2.26,9.8,9.8,0,0,0-2.13-2A11.16,11.16,0,0,1,67.87,78a3.11,3.11,0,0,1-.66-1.9,2.84,2.84,0,0,1,.39-1.47,2.69,2.69,0,0,1,1.09-1,3.11,3.11,0,0,1,1.53-.39,3.22,3.22,0,0,1,1.64.44,5.68,5.68,0,0,1,1.62,1.59l-1,.77a4.9,4.9,0,0,0-1.2-1.22,2,2,0,0,0-1.07-.3,1.73,1.73,0,0,0-1.23.46A1.48,1.48,0,0,0,68.49,76a2,2,0,0,0,.17.79,3.09,3.09,0,0,0,.62.82c.16.16.7.57,1.6,1.24A9,9,0,0,1,73.09,81a3.41,3.41,0,0,1,.6,1.86,3.19,3.19,0,0,1-1,2.35,3.48,3.48,0,0,1-2.5,1,3.7,3.7,0,0,1-2-.6A5.59,5.59,0,0,1,66.43,83.56Z"/><path class="cls-1" d="M81.1,85.87V73.46h2.57a13.09,13.09,0,0,1,4,.45,5.41,5.41,0,0,1,2.82,2.19,6.65,6.65,0,0,1,1,3.72,6.46,6.46,0,0,1-.81,3.28,5.15,5.15,0,0,1-2.09,2.1,7.9,7.9,0,0,1-3.61.67Zm1.18-1.17h1.44a13.6,13.6,0,0,0,3.57-.32,4.13,4.13,0,0,0,2.2-1.64,5.07,5.07,0,0,0,.8-2.9,5.3,5.3,0,0,0-.87-3.06A4.42,4.42,0,0,0,87,75a15,15,0,0,0-3.84-.35h-.88Z"/><path class="cls-1" d="M94,73.46h7.11v1.22H95.2v3.89H101v1.21H95.2v4.88H101v1.21H94Z"/><path class="cls-1" d="M108,73.46h1.24V84.67H114v1.2h-6Z"/><path class="cls-1" d="M115.79,73.46H117V85.87h-1.24Z"/><path class="cls-1" d="M119.94,73.46h2.48a15.24,15.24,0,0,1,2.8.17A3.18,3.18,0,0,1,127,74.72a3.1,3.1,0,0,1,.69,2,3.38,3.38,0,0,1-.47,1.78,3,3,0,0,1-1.37,1.16,6.34,6.34,0,0,1-2.44.4l4.46,5.76h-1.53l-4.47-5.76h-.7v5.76h-1.24Zm1.24,1.22V78.9h2.14a5.55,5.55,0,0,0,1.84-.23,1.89,1.89,0,0,0,.93-.76,2.1,2.1,0,0,0,.33-1.16,2,2,0,0,0-.34-1.13,1.84,1.84,0,0,0-.88-.73,5.34,5.34,0,0,0-1.83-.22Z"/><path class="cls-1" d="M135.43,73.46l5.79,12.41h-1.34l-2-4.08h-5.34l-1.93,4.08h-1.39l5.87-12.41Zm-.16,2.64-2.12,4.49h4.24Z"/><path class="cls-2" d="M62.48,65l-.33-.44-3-3.94-1.26-1.68L57,57.72,55.72,56l-1.13,1.88-4,6.69-1.21,2H61.63a1,1,0,0,0,1-1A1.09,1.09,0,0,0,62.48,65Zm-9.57-.44,3-5,.77,1,1.26,1.68,1.7,2.26Z"/><path class="cls-2" d="M39.37,34.23,32.2,24.68l-.13-.17a1,1,0,0,0-.71-.29h0a1,1,0,0,0-.84.44L.56,64.56.23,65a1,1,0,0,0,.84,1.57H16.74l1.22-2,5.59-9.28,7.8-13v0l.85,1.41,1.12,1.87,1.29-1.72,4.75-6.31,1.27-1.69ZM33.5,42l-1.22-2,0-.05-.09-.15a1,1,0,0,0-.8-.41h0a1,1,0,0,0-.84.45L15.61,64.56H3.09L31.35,26.91h0l6.74,9Z"/><path class="cls-2" d="M120,65s0,0,0,0l-.31-.4-9.75-13-3.09-4.1-1.29-1.73-4.89-6.51L99.4,37.57,88,22.35l-1.27-1.68-1.51-2L71.48.44A1,1,0,0,0,70.65,0a1.09,1.09,0,0,0-.72.29l-.14.18L56.1,18.66l-1.65,2.19-1.27,1.69-11.31,15L40.6,39.25l-4.88,6.49-1.29,1.72h0l-3.07,4.07-9.8,13-.32.41a.08.08,0,0,1,0,0,1.06,1.06,0,0,0-.17.56,1,1,0,0,0,1,1H47l.17-.29,0,0,.2-.32.23-.38.58-1,5.09-8.46,1.12-1.87L63.7,38.74l.74-1.23,1.13-1.87,2.69-4.48,1.17-2,1.22-2,1.19,2L73,31.11l2.59,4.31,1.13,1.88.87,1.44,9.29,15.47L88,56.08l5.09,8.48.58,1,.15.26.33.55.15.25h24.87a1,1,0,0,0,1-1A1,1,0,0,0,120,65Zm-24.57-.44-.59-1-5.55-9.21-1.12-1.87L78,35.57l-.42-.72-.69-1.16-2.73-4.53L73,27.22l-1.53-2.54a1,1,0,0,0-.83-.45,1,1,0,0,0-.83.42,1.24,1.24,0,0,0-.1.2l-1.46,2.41L67.09,29.2l-2.83,4.71-.56.94-.56.93-10,16.72L52,54.37l-5.54,9.22-.58,1H24.09l7.27-9.66,4.19-5.56,1.3-1.73,5-6.68,1.27-1.68,11.31-15,1.27-1.69,2.91-3.88,12-16,12,16,2.77,3.69L86.69,24,98.13,39.25l1.27,1.68,5,6.7,1.31,1.73,4.2,5.6,7.22,9.6Z"/><path class="cls-2" d="M90.69,64.56l-4-6.69L85.54,56l-1.3,1.74-1,1.37-1.27,1.68-2.82,3.77-.22.27,0,0-.16.22a1,1,0,0,0-.13.5,1,1,0,0,0,1,1H91.89Zm-9,0,1.57-2.09,1.27-1.68.88-1.18,3,5Z"/><path class="cls-2" d="M141.21,65.2a1.21,1.21,0,0,0-.09-.2l0,0-.31-.4-30-39.89,0-.05a1,1,0,0,0-.82-.4,1,1,0,0,0-.83.44l-7.24,9.63L100.6,36l1.27,1.68L106.62,44l1.31,1.74,1.12-1.87.89-1.5,0,0,8.12,13.5,0,0v.06l5.19,8.64,1.21,2h15.74a1,1,0,0,0,.94-.64.89.89,0,0,0,.07-.36A.9.9,0,0,0,141.21,65.2Zm-15.54-.64L110.89,40a.69.69,0,0,0-.1-.19,1,1,0,0,0-.83-.42h0a1,1,0,0,0-.8.42A.72.72,0,0,0,109,40l-1.28,2.12L103.13,36l6.81-9.06,28.31,37.65Z"/></g></g></svg>