<?xml version="1.0" encoding="utf-8"?>
<!-- Generator: Adobe Illustrator 24.3.0, SVG Export Plug-In . SVG Version: 6.00 Build 0)  -->
<svg version="1.1" id="Capa_1" xmlns="http://www.w3.org/2000/svg" xmlns:xlink="http://www.w3.org/1999/xlink" x="0px" y="0px"
	 viewBox="0 0 267.6 64.7" style="enable-background:new 0 0 267.6 64.7;" xml:space="preserve">
<style type="text/css">
	.st0{fill:#1D2E51;}
	.st1{fill:#00A5CD;}
</style>
<g>
	<g>
		<g>
			<path class="st0" d="M31.9,10.8l30.5,30.5L40.9,62.7l-8.2-8.2l1.2-1.2l6.7,6.7l0.3,0.3l0.3-0.3l18.4-18.4l0.3-0.3L59.6,41
				L32.1,13.5l-0.3-0.3l-0.3,0.3L13.7,31.4l-1.2-1.2L31.9,10.8"/>
		</g>
		<g>
			<path class="st0" d="M9.6,33l1.2,1.2L4.1,41l-0.3,0.3l0.3,0.3l18.4,18.4l0.3,0.3l0.3-0.3L50,33l1.3,1.3L22.8,62.7L1.3,41.2
				L9.6,33z"/>
		</g>
		<g>
			<path class="st0" d="M31.9,1.8l25.9,25.9l-3.7,3.7l-1.3-1.3l2.2-2.2l0.3-0.3L55,27.4L32.1,4.5l-0.3-0.3l-0.3,0.3L8.7,27.4
				l-0.3,0.3l0.3,0.3L31,50.3l-1.2,1.2L5.9,27.7L31.9,1.8"/>
		</g>
		<g>
			<path class="st0" d="M31.9,19.8l3.4,3.4l-3.5,3.4l-3.4-3.4L31.9,19.8"/>
		</g>
	</g>
	<g>
		<g>
			<path class="st0" d="M77.3,19.7v-0.2h5.1c0.9,0,1.6,0.1,2.3,0.4c0.7,0.2,1.2,0.6,1.6,1c0.4,0.4,0.8,0.9,1,1.4
				c0.2,0.5,0.3,1,0.3,1.6c0,0.5-0.1,1.1-0.3,1.6c-0.2,0.5-0.5,1-1,1.4s-1,0.7-1.7,0.9C84,27.9,83.2,28,82.3,28
				c-0.3,0-0.9,0-1.7-0.1v5.4c0,1.1,0.6,1.7,1.7,1.7v0.2h-5V35c0.5,0,0.9-0.2,1.2-0.4c0.3-0.3,0.5-0.7,0.5-1.3V21.4
				c0-0.4-0.1-0.7-0.2-0.9c-0.1-0.2-0.2-0.4-0.4-0.5c-0.2-0.1-0.3-0.2-0.5-0.2c-0.2,0-0.3-0.1-0.4-0.1H77.3z M80.6,20v7.4
				c0.5,0.1,1.1,0.1,1.6,0.1c1,0,1.9-0.3,2.6-0.8c0.7-0.5,1.1-1.5,1.1-2.9c0-1.2-0.3-2.1-0.9-2.9c-0.6-0.7-1.6-1.1-2.8-1.1
				C81.6,19.9,81.1,19.9,80.6,20z"/>
			<path class="st0" d="M106.6,27.3c0,1.5-0.4,2.8-1.1,4.1c-0.7,1.3-1.7,2.3-3,3c-1.3,0.7-2.6,1.1-4.2,1.1c-1.5,0-2.9-0.4-4.2-1.1
				c-1.3-0.7-2.3-1.8-3-3c-0.7-1.3-1.1-2.7-1.1-4.2c0-1.2,0.2-2.2,0.7-3.2c0.4-1,1-1.9,1.8-2.6c0.8-0.8,1.7-1.3,2.7-1.7
				c1-0.4,2.1-0.6,3.1-0.6c1.1,0,2.1,0.2,3.1,0.6c1,0.4,1.9,1,2.7,1.7c0.8,0.7,1.4,1.6,1.8,2.7C106.4,25,106.6,26.1,106.6,27.3z
				 M104.7,27.4c0-2.1-0.4-3.7-1.1-4.9c-0.7-1.2-1.6-2-2.6-2.4c-1-0.4-1.9-0.6-2.7-0.6c-0.7,0-1.3,0.1-2.1,0.3
				c-0.7,0.2-1.4,0.6-2.1,1.2c-0.7,0.6-1.2,1.4-1.7,2.4c-0.4,1-0.6,2.3-0.6,3.9c0,1.3,0.2,2.5,0.5,3.5c0.4,1,0.9,1.8,1.5,2.5
				c0.6,0.6,1.3,1.1,2.1,1.4c0.8,0.3,1.5,0.4,2.4,0.4c0.7,0,1.5-0.1,2.2-0.4c0.7-0.3,1.4-0.7,2.1-1.3c0.6-0.6,1.1-1.4,1.5-2.4
				C104.6,30,104.7,28.8,104.7,27.4z"/>
			<path class="st0" d="M109.4,19.7h-0.2v-0.2h5.4c0.9,0,1.6,0.1,2.2,0.4c0.6,0.3,1.1,0.6,1.4,1c0.3,0.4,0.6,0.9,0.7,1.3
				c0.1,0.5,0.2,0.9,0.2,1.4c0,0.6-0.1,1.1-0.4,1.6c-0.2,0.5-0.6,1-1.1,1.3c-0.5,0.4-1.1,0.6-1.8,0.8v0c0.9,0.5,1.8,1.4,2.6,2.7
				l1.4,2.4c0.6,1.1,1.2,1.8,1.5,2c0.4,0.3,0.8,0.4,1.1,0.5v0.2h-2.9c-0.1-0.2-0.2-0.3-0.3-0.5c-0.1-0.1-0.2-0.3-0.3-0.5
				c-0.1-0.1-0.2-0.3-0.3-0.5c-0.1-0.2-0.2-0.3-0.3-0.4l-1.9-3.1c-0.4-0.6-0.8-1.1-1.2-1.5c-0.4-0.4-0.8-0.7-1.1-0.8
				c-0.3-0.2-0.6-0.3-0.9-0.3c-0.3,0-0.6-0.1-1-0.1v5.7c0,1.1,0.6,1.7,1.7,1.7v0.2h-5V35c0.3,0,0.6-0.1,0.8-0.2
				c0.2-0.1,0.4-0.3,0.6-0.5c0.2-0.3,0.2-0.6,0.2-1V21.4c0-0.6-0.2-1.1-0.5-1.3C110,19.8,109.7,19.7,109.4,19.7z M112.4,27.1h0.9
				c0.9,0,1.7-0.1,2.3-0.4c0.6-0.3,1-0.7,1.3-1.2c0.3-0.5,0.4-1.1,0.4-1.8c0-0.6-0.1-1.2-0.4-1.8c-0.2-0.6-0.7-1.1-1.2-1.5
				c-0.6-0.4-1.4-0.6-2.3-0.6c-0.4,0-0.7,0-1,0.1V27.1z"/>
			<path class="st0" d="M144.5,18.7c-0.4,0.5-0.9,0.8-1.6,0.8h-8.5h-1.6h-8.5c-0.2,0-0.5,0-0.6,0c-0.2,0-0.3-0.1-0.5-0.1
				c-0.1-0.1-0.2-0.1-0.3-0.2s-0.2-0.2-0.3-0.4h-0.2v3.8h0.2c0.1-1,0.4-1.7,0.9-2c0.5-0.3,1.2-0.5,1.9-0.5h3.1v13.2
				c0,0.6-0.2,1.1-0.5,1.3c-0.3,0.3-0.7,0.4-1.2,0.4v0.2h5V35c-1.1,0-1.7-0.6-1.7-1.7V20.1h3.8h0.8h2.3v13.2c0,0.6-0.2,1.1-0.5,1.3
				c-0.3,0.3-0.7,0.4-1.2,0.4v0.2h5V35c-1.1,0-1.7-0.6-1.7-1.7V20.1h3.1c0.8,0,1.4,0.2,1.9,0.5c0.5,0.3,0.8,1,0.9,2h0.2v-3.8H144.5z
				"/>
			<path class="st0" d="M162.8,27.3c0,1.5-0.4,2.8-1.1,4.1c-0.7,1.3-1.7,2.3-3,3c-1.3,0.7-2.6,1.1-4.2,1.1c-1.5,0-2.9-0.4-4.2-1.1
				c-1.3-0.7-2.3-1.8-3-3c-0.7-1.3-1.1-2.7-1.1-4.2c0-1.2,0.2-2.2,0.7-3.2c0.4-1,1-1.9,1.8-2.6c0.8-0.8,1.7-1.3,2.7-1.7
				c1-0.4,2.1-0.6,3.1-0.6c1.1,0,2.1,0.2,3.1,0.6c1,0.4,1.9,1,2.7,1.7c0.8,0.7,1.4,1.6,1.8,2.7S162.8,26.1,162.8,27.3z M160.9,27.4
				c0-2.1-0.4-3.7-1.1-4.9c-0.7-1.2-1.6-2-2.6-2.4c-1-0.4-1.9-0.6-2.7-0.6c-0.7,0-1.3,0.1-2.1,0.3c-0.7,0.2-1.4,0.6-2.1,1.2
				c-0.7,0.6-1.2,1.4-1.7,2.4c-0.4,1-0.6,2.3-0.6,3.9c0,1.3,0.2,2.5,0.5,3.5c0.4,1,0.9,1.8,1.5,2.5s1.3,1.1,2.1,1.4
				c0.8,0.3,1.5,0.4,2.4,0.4c0.7,0,1.5-0.1,2.2-0.4c0.7-0.3,1.4-0.7,2.1-1.3c0.6-0.6,1.1-1.4,1.5-2.4
				C160.7,30,160.9,28.8,160.9,27.4z"/>
			<path class="st0" d="M179.1,35.2h-5.9V35h0.2c0.4,0,0.7-0.1,1-0.4c0.3-0.3,0.4-0.7,0.4-1.3V21.4c0-0.6-0.1-1-0.4-1.3
				c-0.3-0.3-0.6-0.5-1.1-0.5h-0.2v-0.2h5.1c0.7,0,1.3,0.1,1.9,0.3c0.6,0.2,1,0.5,1.4,0.8s0.7,0.7,0.9,1.2c0.2,0.4,0.3,0.9,0.3,1.4
				c0,0.9-0.3,1.7-0.9,2.3c-0.6,0.6-1.4,1-2.5,1.3v0c0.5,0,0.9,0.1,1.4,0.2c0.4,0.1,0.8,0.2,1.2,0.4c0.3,0.2,0.7,0.4,1,0.7
				c0.3,0.3,0.5,0.5,0.7,0.8c0.2,0.3,0.3,0.6,0.4,1c0.1,0.4,0.1,0.7,0.1,1.1c0,0.8-0.2,1.5-0.6,2.1c-0.4,0.6-0.9,1-1.4,1.3
				C181.5,35,180.4,35.2,179.1,35.2z M176.5,26.7h1c0.8,0,1.4-0.1,1.8-0.3c0.2-0.1,0.5-0.3,0.7-0.5c0.2-0.2,0.5-0.5,0.7-0.9
				c0.2-0.4,0.3-0.9,0.3-1.5c0-0.5-0.1-0.9-0.2-1.3c-0.1-0.4-0.4-0.8-0.6-1.1c-0.3-0.3-0.6-0.6-1-0.8c-0.4-0.2-0.8-0.3-1.3-0.3
				c-0.4,0-0.9,0.1-1.4,0.2V26.7z M178.1,27.2h-1.6v5.7c0,0.4,0,0.7,0.1,0.9c0.1,0.3,0.3,0.5,0.6,0.7c0.3,0.2,0.8,0.3,1.5,0.3
				c1.4,0,2.5-0.5,3.1-1.4c0.4-0.7,0.6-1.4,0.6-2.2c0-0.6-0.1-1.1-0.3-1.6c-0.2-0.5-0.5-0.9-0.9-1.2c-0.4-0.3-0.8-0.6-1.4-0.8
				C179.4,27.2,178.8,27.2,178.1,27.2z"/>
			<path class="st0" d="M186.4,35h0.2c0.4,0,0.7-0.2,1-0.5c0.3-0.3,0.4-0.7,0.4-1.3V21.4c0-0.7-0.2-1.1-0.5-1.4
				c-0.3-0.3-0.7-0.4-1.2-0.4v-0.2h5v0.2c-0.4,0-0.8,0.1-1.2,0.4c-0.3,0.2-0.5,0.7-0.5,1.4v11.5c0,0.7,0.2,1.2,0.5,1.4
				c0.3,0.3,0.9,0.4,1.7,0.4h1.4c0.6,0,1.1-0.1,1.4-0.2s0.6-0.4,0.8-0.7c0.2-0.3,0.4-0.7,0.6-1.2h0.2l-0.6,2.6h-9.3V35z"/>
			<path class="st0" d="M205,19.3l4.7,13.4c0.2,0.7,0.5,1.2,0.7,1.5c0.2,0.3,0.4,0.5,0.6,0.6c0.2,0.1,0.5,0.1,0.8,0.2v0.2h-5.1V35
				c0.5,0,0.9,0,1.2-0.1c0.3-0.1,0.4-0.4,0.4-0.8c0-0.2-0.1-0.6-0.2-1c0-0.1,0-0.1,0-0.1l-1.4-4.2h-5.4l-1.2,3.9
				c-0.2,0.5-0.3,0.9-0.3,1.3c0,0.4,0.1,0.7,0.3,0.9c0.2,0.1,0.5,0.2,0.9,0.2v0.2h-3.7V35c0.5,0,0.9-0.3,1.3-0.6
				c0.3-0.4,0.6-0.9,0.8-1.6l4.4-13.5H205z M201.5,28.2h5l-2.6-7.4h0L201.5,28.2z"/>
			<path class="st0" d="M229.8,19.5v0.2c-0.4,0-0.7,0.1-0.9,0.2c-0.2,0.1-0.4,0.3-0.5,0.6c-0.1,0.3-0.2,0.7-0.2,1.3v13.8H228
				l-12-13.4v9.7c0,0.8,0,1.4,0.1,1.8c0.1,0.4,0.2,0.7,0.3,0.8c0.3,0.4,0.7,0.6,1.4,0.6v0.2h-3.9V35c0.4,0,0.8-0.1,1-0.3
				c0.2-0.2,0.4-0.5,0.5-0.9c0.1-0.4,0.2-1.1,0.2-2V21.5l-0.5-0.6c-0.5-0.5-0.8-0.9-1.1-1c-0.3-0.1-0.6-0.2-1-0.3v-0.2h3l11.9,13.3
				V22.6c0-0.8,0-1.3-0.1-1.7c-0.1-0.4-0.2-0.7-0.5-0.9c-0.3-0.2-0.7-0.4-1.2-0.4v-0.2H229.8z"/>
			<path class="st0" d="M246,23h-0.2c-0.1-0.8-0.5-1.4-1.1-1.9c-0.6-0.5-1.3-0.9-2-1.2c-0.8-0.2-1.5-0.4-2.1-0.4
				c-0.9,0-1.7,0.2-2.5,0.6c-0.8,0.4-1.5,0.9-2.1,1.6c-0.6,0.7-1,1.5-1.3,2.5c-0.3,1-0.5,2-0.5,3.2c0,1.1,0.2,2.1,0.5,3.1
				c0.3,0.9,0.8,1.8,1.4,2.5s1.3,1.2,2.1,1.6s1.6,0.5,2.6,0.5c0.8,0,1.7-0.2,2.6-0.5c1-0.3,1.8-0.9,2.6-1.6v0.6
				c-0.9,0.7-1.8,1.3-2.6,1.6c-0.8,0.3-1.8,0.5-2.9,0.5c-1.2,0-2.4-0.2-3.4-0.7c-1-0.5-1.9-1.1-2.6-1.8c-0.7-0.8-1.2-1.6-1.6-2.6
				c-0.4-1-0.5-1.9-0.5-3c0-1.5,0.4-2.9,1.1-4.3c0.8-1.3,1.8-2.3,3.1-3.1s2.7-1.1,4.2-1.1c0.9,0,1.9,0.1,3,0.4l1.1,0.3
				c0.2,0,0.4,0.1,0.5,0.1c0.3,0,0.5,0,0.6-0.1c0.1-0.1,0.2-0.2,0.2-0.4h0.2L246,23z"/>
			<path class="st0" d="M265.1,27.3c0,1.5-0.4,2.8-1.1,4.1c-0.7,1.3-1.7,2.3-3,3c-1.3,0.7-2.6,1.1-4.2,1.1c-1.5,0-2.9-0.4-4.2-1.1
				c-1.3-0.7-2.3-1.8-3-3c-0.7-1.3-1.1-2.7-1.1-4.2c0-1.2,0.2-2.2,0.7-3.2c0.4-1,1-1.9,1.8-2.6c0.8-0.8,1.7-1.3,2.7-1.7
				c1-0.4,2.1-0.6,3.1-0.6c1.1,0,2.1,0.2,3.1,0.6c1,0.4,1.9,1,2.7,1.7c0.8,0.7,1.4,1.6,1.8,2.7S265.1,26.1,265.1,27.3z M263.2,27.4
				c0-2.1-0.4-3.7-1.1-4.9c-0.7-1.2-1.6-2-2.6-2.4c-1-0.4-1.9-0.6-2.7-0.6c-0.7,0-1.3,0.1-2.1,0.3c-0.7,0.2-1.4,0.6-2.1,1.2
				c-0.7,0.6-1.2,1.4-1.7,2.4c-0.4,1-0.6,2.3-0.6,3.9c0,1.3,0.2,2.5,0.5,3.5c0.4,1,0.9,1.8,1.5,2.5s1.3,1.1,2.1,1.4
				c0.8,0.3,1.5,0.4,2.4,0.4c0.7,0,1.5-0.1,2.2-0.4c0.7-0.3,1.4-0.7,2.1-1.3c0.6-0.6,1.1-1.4,1.5-2.4C263,30,263.2,28.8,263.2,27.4z
				"/>
		</g>
	</g>
	<g>
		<polygon class="st1" points="265.1,41.7 79.6,41.7 77.3,44 262.8,44 		"/>
	</g>
	<g>
		<path class="st0" d="M87.9,52.8c-1-1.2-2.5-1.9-4.1-1.9c-3.1,0-5.5,2.4-5.5,5.4c0,3.5,3,5.3,5.5,5.3c1.2,0,2.9-0.5,4.1-1.8v1
			c-1.2,1.1-2.7,1.5-4.1,1.5c-3.7,0-6.4-2.8-6.4-6.1c0-3.4,2.8-6.1,6.3-6.1c2.3,0,3.7,1.2,4.1,1.5V52.8z"/>
		<path class="st0" d="M104.2,50.4v11.8h-0.8V50.4H104.2z"/>
		<path class="st0" d="M120.2,62.2l1.4-12.2l5.3,10.9l5.3-10.9l1.4,12.2h-0.8l-1.1-9.5c0,0-4.8,9.9-4.8,9.9l-4.8-9.9l-1.1,9.5H120.2
			z"/>
		<path class="st0" d="M155.6,58.4h-5.2l-1.6,3.9h-0.9l5.1-12.2l5.1,12.2h-0.9L155.6,58.4z M155.3,57.7l-2.3-5.6l-2.3,5.6H155.3z"/>
		<path class="st0" d="M174.5,51.1v11.1h-0.8V51.1h-3.2v-0.7h7.1v0.7H174.5z"/>
		<path class="st0" d="M197.7,58.4h-5.2l-1.6,3.9H190l5.1-12.2l5.1,12.2h-0.9L197.7,58.4z M197.4,57.7l-2.3-5.6l-2.3,5.6H197.4z"/>
		<path class="st0" d="M220,62.2l-4-5.6h-0.4v5.6h-0.8V50.4h1.8c0.9,0,1.8,0.1,2.6,0.6c1,0.6,1.3,1.6,1.3,2.5c0,1.2-0.5,2.4-2,2.9
			c-0.6,0.2-1.2,0.2-1.5,0.2l4,5.6H220z M215.7,56h1.2c1.7,0,2.8-0.9,2.8-2.4c0-1.2-0.6-1.8-1.1-2.1c-0.5-0.3-1.4-0.4-1.9-0.4h-1V56
			z"/>
		<path class="st0" d="M237.1,50.4v11.8h-0.8V50.4H237.1z"/>
		<path class="st0" d="M265.2,56.4c0,3.4-2.8,6.1-6.3,6.1c-3.6,0-6.3-2.7-6.3-6.1c0-3.4,2.8-6.1,6.3-6.1
			C262.4,50.3,265.2,53,265.2,56.4z M264.3,56.4c0-3-2.3-5.4-5.5-5.4c-3.1,0-5.5,2.4-5.5,5.4c0,3,2.3,5.4,5.5,5.4
			C262,61.7,264.3,59.4,264.3,56.4z"/>
	</g>
	<g>
		<path class="st0" d="M80.4,1.9v10.4h3.2V13h-3.9V1.9H80.4z"/>
		<path class="st0" d="M102.6,7.4c0,3.2-2.6,5.7-5.9,5.7c-3.4,0-5.9-2.5-5.9-5.7s2.6-5.7,5.9-5.7C100,1.7,102.6,4.3,102.6,7.4z
			 M101.8,7.4c0-2.8-2.2-5.1-5.1-5.1c-3,0-5.1,2.2-5.1,5.1c0,2.8,2.2,5,5.1,5C99.6,12.5,101.8,10.3,101.8,7.4z"/>
		<path class="st0" d="M111.5,13l1.3-11.5l5,10.3l5-10.3L124,13h-0.8l-1-8.9c0,0-4.5,9.3-4.5,9.3l-4.5-9.3l-1,8.9H111.5z"/>
		<path class="st0" d="M139.2,9.3h-4.9l-1.5,3.6H132l4.8-11.4l4.8,11.4h-0.8L139.2,9.3z M139,8.7l-2.1-5.3l-2.2,5.3H139z"/>
		<path class="st0" d="M154.6,3.8c-0.7-1.3-1.9-1.4-2.2-1.4c-1.4,0-2.1,0.9-2.1,2.1c0,1.2,0.9,1.6,2,2.1c1.1,0.5,1.7,0.8,2.3,1.2
			c0.5,0.3,1.2,0.9,1.2,2.1c0,1.9-1.6,3.2-3.6,3.2c-1.5,0-2.2-0.7-2.7-1.2c-0.4-0.5-0.6-0.9-0.7-1.2l0.7-0.3
			c0.2,0.4,0.4,0.9,0.6,1.1c0.5,0.6,1.4,0.9,2.1,0.9c1.5,0,2.8-1.1,2.8-2.6c0-0.6-0.2-1.2-1.1-1.7c-0.3-0.2-1-0.5-1.9-1
			c-1.1-0.5-1.7-0.8-2.1-1.5c-0.3-0.4-0.4-0.8-0.4-1.3c0-1.3,0.9-2.8,2.9-2.8c1.1,0,2.2,0.5,2.8,1.6L154.6,3.8z"/>
		<path class="st0" d="M175.2,13V1.9h2.3c1,0,2.8,0.1,4.2,1.5c1.2,1.2,1.6,2.8,1.6,4s-0.4,2.8-1.6,4c-1.4,1.4-3.2,1.5-4.2,1.5H175.2
			z M176,12.3h1.5c3,0,5.1-2,5.1-4.9c0-2.8-2.1-4.9-5.1-4.9H176V12.3z"/>
		<path class="st0" d="M197.8,2.5h-4.7v4h4.6v0.7h-4.6v5.1h4.7V13h-5.5V1.9h5.5V2.5z"/>
	</g>
</g>
</svg>
